<svg width="56" height="74" viewBox="0 0 56 74" fill="none" xmlns="http://www.w3.org/2000/svg">
<path d="M21.7 47.6L4.50001 33.6L0.600006 39.8L17.1 53.7L21.7 47.6Z" fill="#545758"/>
<path d="M32.5 21.5L5.8 30.9L23.9 45.8L51.4 35L32.5 21.5Z" fill="#545758"/>
<path d="M29.9 55.3L55.4 45.2L52 37.7L25.7 48.1L29.9 55.3Z" fill="#545758"/>
<path d="M29.3 58.5C28.8 58.5 28.3 58.2 28.1 57.8L25.1 52.6V74L52.8 62.4V49.3L29.9 58.4C29.7 58.4 29.5 58.5 29.3 58.5Z" fill="#545758"/>
<path d="M17.5 57.2C17.4 57.2 17.4 57.2 17.3 57.2C17 57.2 16.7 57.1 16.4 56.9L4.20001 46.6V57.4L22.3 73.4V51.6L18.5 56.6C18.2 56.9 17.9 57.1 17.5 57.2Z" fill="#545758"/>
<path d="M18.6 20.2H37.2V14.7H48.6L28 0L7.5 14.7H18.6V20.2Z" fill="#0B3E64"/>
</svg>
