<svg width="100" height="62" viewBox="0 0 100 62" fill="none" xmlns="http://www.w3.org/2000/svg">
<path d="M60.2 46.2C55.9 46.2 52.4 49.7 52.4 54C52.4 58.3 55.9 61.8 60.2 61.8C64.5 61.8 68 58.3 68 54C68 49.6 64.5 46.2 60.2 46.2ZM60.2 57.5C58.2 57.5 56.6 55.9 56.6 53.9C56.6 51.9 58.2 50.3 60.2 50.3C62.2 50.3 63.8 51.9 63.8 53.9C63.8 55.9 62.2 57.5 60.2 57.5ZM79.4 46.2C75.1 46.2 71.6 49.7 71.6 54C71.6 58.3 75.1 61.8 79.4 61.8C83.7 61.8 87.2 58.3 87.2 54C87.2 49.6 83.7 46.2 79.4 46.2ZM79.4 57.5C77.4 57.5 75.8 55.9 75.8 53.9C75.8 51.9 77.4 50.3 79.4 50.3C81.4 50.3 83 51.9 83 53.9C83 55.9 81.4 57.5 79.4 57.5ZM8.8 50.9H3C1.6 50.9 0.5 49.8 0.5 48.4V43.6C0.5 42.2 1.6 41 3 41H14.5C11.3 43.2 9.1 46.8 8.8 50.9ZM95.9 43.6V48.4C95.9 49.8 94.8 50.9 93.4 50.9H89.4C88.1 46.6 84.1 43.5 79.4 43.5C75.1 43.5 71.4 46.1 69.8 49.9C68.2 46.2 64.5 43.5 60.2 43.5C55.5 43.5 51.5 46.6 50.2 50.9H34.2C34 46.8 31.8 43.2 28.5 41.1H93.4C94.8 41 95.9 42.2 95.9 43.6ZM21.5 41.6C16 41.6 11.4 46.1 11.4 51.7C11.4 57.2 15.9 61.8 21.5 61.8C27 61.8 31.6 57.3 31.6 51.7C31.6 46.1 27.1 41.6 21.5 41.6ZM21.5 56.1C19 56.1 17 54.1 17 51.6C17 49.1 19 47.1 21.5 47.1C24 47.1 26 49.1 26 51.6C26 54.1 24 56.1 21.5 56.1ZM40.7 3.6C40.6 1.8 39.1 0.299999 37.2 0.299999H10.6C8.7 0.299999 7.1 1.9 7.1 3.8C7.1 5 7.7 6 8.6 6.7L2 20C0.8 20.7 0 22.2 0 23.8V34C0 36.4 1.7 38.3 3.9 38.3H36.8C39 38.3 40.7 36.4 40.7 34V3.6ZM23.4 20.2C23.4 21.8 22.2 23.1 20.6 23.2C20.6 23.2 10.4 23.2 8.2 23.2C6 23.2 4.6 21.9 5.8 19.1C6.8 16.7 10.2 10.2 10.2 10.2C11 8.2 12.7 6.7 15.2 6.7H20.3C22 6.7 23.3 8.1 23.3 9.8V20.2H23.4ZM35.9 20.2C35.9 21.9 34.5 23.3 32.8 23.3H30.1C28.4 23.3 27 21.9 27 20.2V9.7C27 8 28.4 6.6 30.1 6.6H32.8C34.5 6.6 35.9 8 35.9 9.7V20.2Z" fill="#545758"/>
<path d="M47.7 39.3H93.3C97.5 35.2 100 29.9 100 24.2C100 11 86.8 0.299999 70.5 0.299999C59.1 0.299999 49.3 5.5 44.4 13.1V35.2C45.3 36.7 46.4 38 47.7 39.3Z" fill="#0B3E64"/>
<path d="M48.4 16.3C48.6 16.1 60.8 -4.76837e-07 82.3 9C83.3 9.4 83.8 10.6 83.4 11.6C83 12.6 81.8 13.1 80.8 12.7C62.3 4.9 52.1 18.1 51.6 18.7C51.2 19.2 50.6 19.5 50 19.5C49.6 19.5 49.2 19.4 48.8 19.1C48 18.4 47.8 17.1 48.4 16.3Z" fill="white"/>
</svg>
