<svg width="66" height="74" viewBox="0 0 66 74" fill="none" xmlns="http://www.w3.org/2000/svg">
<path d="M54.9 0H39.6C40.7 4.4 41.8 8.7 42.9 13.1V20H23.1V13.1C24.2 8.7 25.3 4.4 26.4 0H11.1C7.5 4.4 3.8 8.7 0.200001 13.1V74H65.8V13.1C62.2 8.7 58.5 4.4 54.9 0ZM25.2 26.8H41.3C43 26.8 45.1 28 45.9 29.5L47.6 32.5L50.8 30.6L49.2 35L46.6 41.5L39.2 40.4L35 39.8L37.9 38.1L33.4 30.2L28.8 38.2L18.9 32.5L20.7 29.3C21.4 28 23.5 26.8 25.2 26.8ZM29.7 65.4H25.3C23.6 65.4 21.5 64.2 20.7 62.7L12.6 48.7C11.8 47.2 11.8 44.8 12.6 43.4L14.4 40.3L11.4 38.6L15.7 38L23 37L25.7 43.6L27.4 47.9L24.2 46L19.6 54H29.7V65.4ZM54 48.7L45.9 62.7C45.1 64.2 43 65.4 41.3 65.4H38.5V69L35.7 65.4L31.3 59.7L35.7 54L38.5 50.4V54H47L42.3 45.8L52.2 40.1L54.1 43.4C54.9 44.9 54.9 47.3 54 48.7Z" fill="#545758"/>
<path d="M34.9 13.1H31.1C31.3 8.7 31.5 4.4 31.7 0H34.2C34.5 4.4 34.7 8.7 34.9 13.1Z" fill="#545758"/>
<path d="M34.9 13.1H31.1C31.3 8.7 31.5 4.4 31.7 0H34.2C34.5 4.4 34.7 8.7 34.9 13.1Z" fill="#545758"/>
<path d="M34.9 13.1H31.1C31.3 8.7 31.5 4.4 31.7 0H34.2C34.5 4.4 34.7 8.7 34.9 13.1Z" fill="#0B3E64"/>
</svg>
