<svg width="86" height="74" viewBox="0 0 86 74" fill="none" xmlns="http://www.w3.org/2000/svg">
<path d="M30.6 41.6C30.9 45.7 31.6 49.7 32.6 53.5C35.5 55.9 43.7 61 58.7 61C74.1 61 81.4 55.3 83.9 52.9C84.9 49.3 85.5 45.4 85.8 41.6C80.5 44.9 71.8 48.3 58.8 48.3C45.3 48.3 36.2 44.8 30.6 41.6Z" fill="#545758"/>
<path d="M85.9 31.1C85.7 27 85.1 23.1 84.4 19.6C80.3 22.8 72.3 26.9 58.7 26.9C44.7 26.9 36.1 22.8 31.9 19.8C31.2 23.4 30.7 27.4 30.5 31.6C32.8 33.7 41.3 40 58.8 40C76.7 40.1 84.2 33.1 85.9 31.1Z" fill="#545758"/>
<path d="M34.9 59.5C36.7 63.4 39.2 66.8 42.4 69.5C45.5 72 51.5 73.8 57.9 74C58 74 58.1 74 58.2 74C58.3 74 58.4 74 58.5 74C64.9 73.8 70.9 72.1 74 69.5C77.3 66.8 79.7 63.3 81.6 59.4C77 62.1 69.7 64.8 58.8 64.8C47.4 64.8 39.7 62.1 34.9 59.5Z" fill="#0B3E64"/>
<path d="M83.5 15.5C82.5 11.6 81.2 8.6 80.1 7.1C75 0.299998 60.7 0.0999985 58.3 0.0999985C55.9 0.0999985 41.6 0.399999 36.5 7.1C35.3 8.7 34 11.8 33 15.9C36.1 18.3 44.2 23.2 58.9 23.2C73.3 23.1 80.6 18.1 83.5 15.5ZM41.8 8.5C41.8 5.9 49.2 3.7 58.2 3.7C67.3 3.7 74.6 5.8 74.6 8.5C74.6 11.1 67.2 13.3 58.2 13.3C49.1 13.3 41.8 11.1 41.8 8.5Z" fill="#0B3E64"/>
<path d="M42.6 45.2C44.1464 45.2 45.4 43.9464 45.4 42.4C45.4 40.8536 44.1464 39.6 42.6 39.6C41.0536 39.6 39.8 40.8536 39.8 42.4C39.8 43.9464 41.0536 45.2 42.6 45.2Z" fill="#0B3E64"/>
<path d="M58.2 46.9C59.7464 46.9 61 45.6464 61 44.1C61 42.5536 59.7464 41.3 58.2 41.3C56.6536 41.3 55.4 42.5536 55.4 44.1C55.4 45.6464 56.6536 46.9 58.2 46.9Z" fill="#0B3E64"/>
<path d="M73.9 45.2C75.4464 45.2 76.7 43.9464 76.7 42.4C76.7 40.8536 75.4464 39.6 73.9 39.6C72.3536 39.6 71.1 40.8536 71.1 42.4C71.1 43.9464 72.3536 45.2 73.9 45.2Z" fill="#0B3E64"/>
<path d="M23.3 27.1C23.3 21.2 20 16.2 15.4 14.5V8.59999H16C16.7 8.59999 17.3 7.99999 17.3 7.29999V2.19999C17.3 1.49999 16.7 0.899994 16 0.899994H7.6C6.9 0.899994 6.3 1.49999 6.3 2.19999V7.29999C6.3 7.99999 6.9 8.59999 7.6 8.59999H8.2V14.5C3.6 16.3 0.300003 21.2 0.300003 27.2V27.3C0.300003 27.4 0.300003 27.4 0.300003 27.5V68.7C0.300003 70.9 2.1 72.6 4.4 72.6H19.4C21.6 72.6 23.5 70.8 23.5 68.7V27.4C23.5 27.3 23.5 27.3 23.5 27.2C23.2 27.2 23.3 27.1 23.3 27.1ZM16.4 55.2C16.4 56.7 15.2 57.9 13.7 57.9H6C4.5 57.9 3.3 56.7 3.3 55.2V50.6H16.3V55.2H16.4ZM16.4 45.4H3.4V30.7C3.4 29.2 4.6 28 6.1 28H13.8C15.3 28 16.5 29.2 16.5 30.7V45.4H16.4Z" fill="#545758"/>
</svg>
