<svg width="78" height="74" viewBox="0 0 78 74" fill="none" xmlns="http://www.w3.org/2000/svg">
<path d="M62.7 5.9L50.6 1.1L47.9 44.4L39 53.3L30.1 44.4L27.4 1.1L15.3 5.9C15.3 5.9 2.79999 21 0.799988 53.3H11C13 42.6 16.3 25.7 18.3 23.7C21.3 20.7 18.3 65.1 18.3 65.1C18.3 65.1 27.2 74 39 74C50.8 74 59.7 65.1 59.7 65.1C59.7 65.1 56.7 20.7 59.7 23.7C61.7 25.7 65.1 42.6 67 53.3H77.1C75.2 21 62.7 5.9 62.7 5.9Z" fill="#545758"/>
<path d="M68.6 62.2H77.5C77.5 60.2 77.4 58.2 77.4 56.3H67.6C68.2 59.8 68.6 62.2 68.6 62.2Z" fill="#0B3E64"/>
<path d="M0.5 62.2H9.4C9.4 62.2 9.8 59.8 10.4 56.3H0.6C0.6 58.2 0.5 60.1 0.5 62.2Z" fill="#0B3E64"/>
<path d="M41.9 0H36V5.9H41.9V0Z" fill="#0B3E64"/>
<path d="M44.9 35.5L42 8.9H36L33.1 35.5L39 44.4L44.9 35.5Z" fill="#0B3E64"/>
</svg>
